<?xml version="1.0" encoding="utf-8"?>
<!-- Generator: Adobe Illustrator 16.0.0, SVG Export Plug-In . SVG Version: 6.00 Build 0)  -->
<!DOCTYPE svg PUBLIC "-//W3C//DTD SVG 1.1//EN" "http://www.w3.org/Graphics/SVG/1.1/DTD/svg11.dtd">
<svg version="1.1" id="Capa_1" xmlns="http://www.w3.org/2000/svg" xmlns:xlink="http://www.w3.org/1999/xlink" x="0px" y="0px"
	 width="396.85px" height="255.12px" viewBox="0 0 396.85 255.12" enable-background="new 0 0 396.85 255.12" xml:space="preserve">
<g>
	<g>
		<path fill="#CC8119" stroke="#030104" stroke-width="5" stroke-miterlimit="10" d="M139.813,124.779
			c1.173,7.813,2.569,14.975,4.199,21.485c1.626,6.512,2.896,12.176,3.81,16.991c0.908,4.819,1.138,8.726,0.684,11.72
			c-0.458,2.996-2.182,4.883-5.176,5.664c-0.392,1.043-1.074,0.391-2.051-1.953c-0.978-2.345-2.148-5.793-3.517-10.353
			c-1.367-4.556-2.832-10.06-4.395-16.504c-1.563-6.445-3.096-13.281-4.59-20.509c-1.499-7.226-2.866-14.614-4.103-22.167
			c-1.239-7.55-2.216-14.81-2.93-21.777c-0.717-6.964-1.074-13.345-1.074-19.141c0-5.792,0.519-10.513,1.563-14.16
			c2.08-1.563,3.937-1.983,5.565-1.27c1.626,0.717,2.896,1.953,3.81,3.711c0.908,1.758,1.494,3.778,1.758,6.055
			c0.259,2.28,0.194,4.331-0.195,6.152c0.128,0.781,0.421,2.118,0.879,4.004c0.455,1.889,0.943,3.906,1.465,6.055
			c0.52,2.148,1.041,4.169,1.563,6.055c0.519,1.889,0.909,3.223,1.172,4.004c2.472-0.259,6.085-0.714,10.84-1.367
			c4.751-0.65,9.895-1.529,15.43-2.637c5.533-1.104,11.197-2.441,16.992-4.004c5.792-1.563,11.065-3.418,15.82-5.566
			c4.751-2.148,8.624-4.59,11.622-7.324c2.993-2.734,4.492-5.792,4.492-9.18c0-0.259-0.034-0.684-0.098-1.271
			c-0.068-0.586-0.099-0.943-0.099-1.074c-4.951-5.597-9.932-10.089-14.942-13.477c-5.014-3.384-10.32-5.923-15.918-7.617
			c-5.6-1.69-11.522-2.798-17.772-3.32c-6.25-0.519-12.958-0.781-20.117-0.781c-5.209,0-10.678,0.034-16.406,0.098
			c-5.73,0.067-10.971,0.815-15.723,2.246c-4.755,1.435-8.691,3.974-11.816,7.617c-3.125,3.647-4.688,8.984-4.688,16.016
			c-1.563,0-2.963-0.519-4.199-1.563c-1.239-1.041-2.313-2.31-3.223-3.809c-0.909-1.495-1.626-3.091-2.148-4.785
			c-0.519-1.69-0.781-3.125-0.781-4.297c0-2.472,0.557-4.785,1.66-6.934c1.104-2.149,2.505-4.102,4.199-5.859
			c1.69-1.758,3.613-3.351,5.762-4.785c2.148-1.431,4.199-2.667,6.152-3.711c5.469-1.041,10.352-1.919,14.647-2.637
			c4.298-0.714,8.365-1.27,12.207-1.66c3.84-0.391,7.716-0.65,11.621-0.781c3.906-0.128,8.268-0.195,13.086-0.195
			c4.815,0,9.961,0.391,15.431,1.172c5.469,0.781,10.938,1.953,16.405,3.516c5.469,1.563,10.708,3.613,15.724,6.152
			c5.01,2.539,9.473,5.566,13.379,9.082s6.997,7.587,9.277,12.207c2.274,4.624,3.418,9.799,3.418,15.527
			c0,5.078-1.597,9.506-4.785,13.281c-3.193,3.778-7.358,7.065-12.5,9.863c-5.146,2.802-10.908,5.146-17.286,7.031
			c-6.381,1.889-12.729,3.583-19.043,5.078c-6.317,1.499-12.274,2.802-17.871,3.906c-5.6,1.108-10.156,2.246-13.672,3.418
			c8.722,11.981,17.349,22.168,25.879,30.566c8.526,8.397,16.534,15.463,24.022,21.19c7.486,5.731,14.259,10.386,20.313,13.966
			c6.055,3.582,10.967,6.543,14.746,8.887c3.774,2.344,6.182,4.263,7.228,5.762c1.04,1.494,0.321,3.091-2.148,4.785
			c-1.953,2.344-5.078,2.896-9.375,1.66c-4.297-1.24-9.277-3.613-14.941-7.129c-5.664-3.517-11.719-7.91-18.165-13.185
			s-12.793-10.772-19.043-16.504c-6.25-5.728-12.177-11.392-17.772-16.992C148.47,133.831,143.719,128.947,139.813,124.779z"/>
		<path fill="#CC8119" stroke="#030104" stroke-width="5" stroke-miterlimit="10" d="M245.703,96.976
			c-0.076-0.151-0.114-0.303-0.114-0.456v-0.797c0-1.745,0.475-3.188,1.424-4.327c0.948-1.139,2.296-1.708,4.043-1.708
			c0.684,0,1.765,0.911,3.244,2.733c1.48,1.822,3.453,3.854,5.922,6.092c2.466,2.24,5.466,4.27,8.995,6.092
			c3.53,1.822,7.647,2.733,12.354,2.733c1.822,0,3.645-0.132,5.466-0.398c1.821-0.265,3.453-0.758,4.896-1.48
			c1.44-0.721,2.618-1.688,3.53-2.904c0.91-1.213,1.365-2.77,1.365-4.668c0-4.25-1.081-7.743-3.244-10.476
			c-2.164-2.733-4.879-4.971-8.143-6.718c-3.265-1.746-6.814-3.092-10.646-4.042c-3.834-0.948-7.383-1.802-10.646-2.562
			c-3.266-0.758-5.979-1.518-8.142-2.277c-2.164-0.758-3.246-1.822-3.246-3.188c0-0.151,0.037-0.303,0.114-0.456
			c0-0.075,0.037-0.188,0.114-0.342c0.15-0.302,0.605-0.814,1.365-1.537c0.759-0.721,1.291-1.195,1.595-1.423
			c1.063-0.228,2.6-0.53,4.612-0.911c2.01-0.379,4.192-0.834,6.547-1.367c2.352-0.53,4.763-1.195,7.229-1.993
			c2.467-0.797,4.706-1.745,6.72-2.847c2.01-1.1,3.66-2.372,4.952-3.814c1.289-1.441,1.937-3.112,1.937-5.01
			c0-1.518-0.59-2.77-1.766-3.757c-1.179-0.986-2.563-1.746-4.156-2.277c-1.594-0.53-3.228-0.892-4.896-1.082
			c-1.67-0.188-2.999-0.285-3.983-0.285c-1.064,0-2.545,0.039-4.441,0.114c-1.898,0.077-3.797,0.228-5.693,0.456
			c-1.897,0.228-3.549,0.532-4.952,0.911c-1.405,0.381-2.106,0.874-2.106,1.48v3.302c-2.354,0-4.195-0.55-5.521-1.651
			c-1.329-1.1-1.992-2.827-1.992-5.181c0-0.985,0.283-1.896,0.854-2.733c0.569-0.834,1.311-1.537,2.221-2.106
			c0.91-0.569,1.88-1.005,2.903-1.31c1.024-0.302,1.993-0.455,2.903-0.455h21.977c2.353,0,4.517,0.532,6.49,1.594
			c1.974,1.064,3.662,2.431,5.067,4.1c1.402,1.67,2.505,3.569,3.302,5.693c0.797,2.126,1.195,4.252,1.195,6.376
			c0,2.126-0.702,3.891-2.105,5.295c-1.406,1.405-2.943,2.676-4.611,3.814c-1.672,1.139-3.209,2.259-4.611,3.359
			c-1.405,1.102-2.106,2.448-2.106,4.042c0,0.076,0.037,0.19,0.113,0.341c0.075,0.153,0.114,0.267,0.114,0.342
			c3.111,1.139,6.092,2.658,8.938,4.555c2.847,1.898,5.353,4.099,7.517,6.604c2.162,2.505,3.87,5.277,5.124,8.312
			c1.253,3.037,1.878,6.263,1.878,9.679c0,3.114-0.684,5.79-2.05,8.028c-1.366,2.24-3.131,4.062-5.295,5.465
			c-2.164,1.406-4.594,2.448-7.287,3.131c-2.694,0.684-5.371,1.025-8.026,1.025c-2.506-0.151-4.896-0.359-7.174-0.626
			c-2.277-0.265-4.783-0.986-7.517-2.164c-2.731-1.176-5.884-3.035-9.451-5.58C255.229,105.194,250.864,101.607,245.703,96.976z"/>
		<path fill="#030104" d="M13.922,231.346c-0.428-0.434-0.642-0.982-0.642-1.646v-15.168c0-0.664,0.214-1.215,0.642-1.652
			s0.943-0.656,1.544-0.656s1.118,0.219,1.551,0.656c0.434,0.438,0.649,0.989,0.649,1.652v15.168c0,0.664-0.216,1.214-0.649,1.646
			c-0.433,0.432-0.949,0.648-1.551,0.648C14.865,231.994,14.351,231.777,13.922,231.346z"/>
		<path fill="#030104" d="M22.216,231.434c-0.319-0.383-0.478-0.934-0.478-1.652v-9.551c0-0.639,0.168-1.121,0.505-1.449
			s0.811-0.492,1.421-0.492c0.592,0,1.05,0.164,1.373,0.492s0.484,0.807,0.484,1.435v0.328c0.82-1.647,2.364-2.474,4.633-2.474
			c1.375,0,2.512,0.455,3.408,1.361c0.897,0.905,1.347,2.201,1.347,3.887v6.463c0,0.72-0.169,1.271-0.506,1.652
			c-0.338,0.383-0.82,0.574-1.448,0.574c-0.592,0-1.048-0.191-1.367-0.574s-0.478-0.934-0.478-1.652v-6.437
			c0-0.893-0.23-1.577-0.69-2.056s-1.045-0.719-1.756-0.719c-0.856,0-1.592,0.338-2.207,1.012s-0.922,1.544-0.922,2.609v5.59
			c0,0.72-0.169,1.271-0.506,1.652c-0.338,0.383-0.82,0.574-1.448,0.574C22.991,232.008,22.535,231.816,22.216,231.434z"/>
		<path fill="#030104" d="M48.096,229.74c-0.346,0.765-0.865,1.337-1.558,1.715c-0.693,0.378-1.499,0.566-2.418,0.566
			c-0.976,0-1.865-0.151-2.671-0.457c-0.807-0.307-1.499-0.746-2.077-1.319c-0.579-0.574-1.027-1.289-1.346-2.146
			c-0.319-0.855-0.479-1.813-0.479-2.869c0-1.039,0.146-1.994,0.438-2.863c0.292-0.87,0.705-1.619,1.243-2.248
			c0.537-0.629,1.207-1.118,2.009-1.469c0.802-0.352,1.698-0.526,2.691-0.526c0.574,0,1.088,0.058,1.544,0.171
			c0.455,0.114,0.85,0.279,1.183,0.499s0.616,0.463,0.854,0.731c0.237,0.268,0.456,0.584,0.656,0.949v-0.506
			c0.027-0.546,0.2-0.963,0.52-1.25s0.733-0.431,1.243-0.431c0.583,0,1.027,0.196,1.333,0.587c0.305,0.393,0.458,0.961,0.458,1.708
			v10.508c0,2.214-0.624,3.925-1.872,5.132s-3.006,1.811-5.273,1.811c-0.93,0-1.838-0.09-2.727-0.268
			c-0.888-0.178-1.574-0.397-2.057-0.662c-0.528-0.283-0.792-0.68-0.792-1.189c0-0.337,0.121-0.633,0.362-0.889
			c0.24-0.254,0.539-0.381,0.895-0.381c0.027,0,0.055,0.002,0.082,0.006s0.052,0.008,0.075,0.008c0.022,0,0.048,0.002,0.075,0.007
			c0.026,0.004,0.055,0.009,0.082,0.015c0.026,0.004,0.055,0.01,0.082,0.02c0.026,0.01,0.055,0.019,0.081,0.027
			c0.046,0.019,0.232,0.078,0.561,0.178c0.328,0.101,0.558,0.168,0.689,0.205c0.133,0.037,0.34,0.09,0.622,0.158
			c0.282,0.067,0.552,0.115,0.807,0.144c0.255,0.026,0.515,0.041,0.778,0.041c0.311,0,0.6-0.017,0.868-0.048
			c0.27-0.032,0.526-0.082,0.772-0.15s0.469-0.154,0.669-0.259s0.387-0.229,0.561-0.376s0.323-0.316,0.451-0.512
			c0.127-0.196,0.234-0.416,0.321-0.656c0.086-0.241,0.152-0.512,0.198-0.813c0.045-0.301,0.067-0.625,0.067-0.971v-1.928H48.096z
			 M47.208,228.455c0.592-0.71,0.888-1.813,0.888-3.307c0-1.467-0.25-2.602-0.751-3.402s-1.339-1.203-2.514-1.203
			c-0.602,0-1.123,0.121-1.564,0.361c-0.441,0.242-0.786,0.58-1.031,1.012c-0.246,0.434-0.429,0.913-0.547,1.441
			c-0.118,0.527-0.178,1.115-0.178,1.763c0,1.448,0.303,2.546,0.909,3.293s1.41,1.125,2.412,1.134
			C45.823,229.529,46.616,229.166,47.208,228.455z"/>
		<path fill="#030104" d="M56.234,231.482c-0.406-0.396-0.608-0.887-0.608-1.469c0-0.556,0.198-1.037,0.595-1.441
			c0.396-0.405,0.899-0.608,1.51-0.608c0.583,0,1.08,0.192,1.489,0.581c0.41,0.387,0.615,0.877,0.615,1.469
			c0,0.565-0.2,1.051-0.601,1.456c-0.401,0.406-0.902,0.608-1.504,0.608C57.137,232.076,56.639,231.878,56.234,231.482z"/>
		<path fill="#030104" d="M72.665,231.387c-0.419-0.406-0.629-0.969-0.629-1.689v-15.234c0-0.684,0.238-1.225,0.718-1.626
			c0.478-0.399,1.068-0.601,1.77-0.601h5.808c0.829,0,1.583,0.041,2.261,0.123s1.346,0.236,2.002,0.463
			c0.656,0.229,1.207,0.525,1.653,0.889c0.446,0.365,0.806,0.846,1.08,1.441c0.272,0.598,0.41,1.291,0.41,2.084
			c0,1.185-0.362,2.182-1.086,2.992c-0.725,0.812-1.839,1.34-3.342,1.586v0.055c1.321,0.219,2.275,0.679,2.863,1.38
			c0.587,0.702,0.963,1.739,1.127,3.116l0.341,2.76c0.019,0.201,0.027,0.396,0.027,0.588c0,0.756-0.178,1.325-0.533,1.708
			c-0.354,0.382-0.866,0.574-1.53,0.574c-0.655,0-1.185-0.203-1.585-0.608c-0.399-0.404-0.638-1.021-0.71-1.852l-0.287-2.706
			c-0.108-1.157-0.4-1.972-0.875-2.446c-0.474-0.474-1.298-0.71-2.474-0.71h-3.252v6.026c0,0.738-0.211,1.305-0.635,1.701
			c-0.423,0.396-0.945,0.594-1.564,0.594C73.603,231.994,73.084,231.792,72.665,231.387z M78.922,220.667
			c0.501,0,0.932-0.015,1.292-0.041s0.753-0.097,1.182-0.205s0.777-0.257,1.045-0.444c0.27-0.187,0.494-0.455,0.677-0.806
			c0.182-0.351,0.272-0.772,0.272-1.265c0-0.373-0.045-0.703-0.137-0.99c-0.091-0.287-0.198-0.523-0.321-0.71
			s-0.306-0.345-0.547-0.472s-0.458-0.223-0.648-0.287c-0.191-0.063-0.456-0.114-0.792-0.15c-0.338-0.037-0.608-0.057-0.813-0.063
			c-0.205-0.004-0.499-0.006-0.881-0.006h-0.055H76.38v5.438L78.922,220.667L78.922,220.667z"/>
		<path fill="#030104" d="M92.375,230.805c-0.935-0.91-1.4-2.203-1.4-3.88v-6.409c0-0.719,0.168-1.271,0.506-1.652
			c0.338-0.383,0.82-0.574,1.448-0.574c0.592,0,1.047,0.191,1.366,0.574s0.479,0.934,0.479,1.652v6.381
			c0,0.902,0.229,1.59,0.684,2.063s1.039,0.71,1.749,0.71c0.865,0,1.604-0.337,2.22-1.011c0.615-0.675,0.922-1.544,0.922-2.61
			v-5.533c0-0.72,0.168-1.271,0.506-1.654c0.337-0.381,0.815-0.573,1.436-0.573c0.601,0,1.061,0.19,1.38,0.573
			c0.319,0.384,0.479,0.935,0.479,1.654v9.551c0,0.638-0.169,1.121-0.506,1.449c-0.337,0.327-0.811,0.491-1.421,0.491
			c-0.592,0-1.052-0.164-1.38-0.491c-0.328-0.328-0.492-0.807-0.492-1.436v-0.396c-0.802,1.658-2.3,2.487-4.496,2.487
			C94.467,232.172,93.309,231.716,92.375,230.805z"/>
		<path fill="#030104" d="M111.375,229.794v0.369c0,0.583-0.164,1.039-0.492,1.366c-0.328,0.328-0.784,0.492-1.366,0.492
			c-0.592,0-1.062-0.209-1.407-0.627c-0.347-0.42-0.52-0.988-0.52-1.709v-15.234c0-0.721,0.159-1.271,0.479-1.654
			c0.318-0.382,0.773-0.574,1.366-0.574c0.628,0,1.111,0.191,1.448,0.574s0.506,0.934,0.506,1.654v5.93
			c0.82-1.494,2.264-2.24,4.331-2.24c1.813,0,3.284,0.614,4.414,1.844c1.129,1.23,1.694,2.934,1.694,5.111
			c0,2.141-0.542,3.864-1.626,5.172c-1.084,1.307-2.52,1.961-4.305,1.961C113.729,232.227,112.222,231.416,111.375,229.794z
			 M116.157,229.507c0.383-0.19,0.693-0.442,0.936-0.751c0.241-0.311,0.442-0.669,0.602-1.08c0.158-0.41,0.271-0.822,0.335-1.236
			c0.063-0.414,0.096-0.836,0.096-1.264c0-0.838-0.105-1.587-0.314-2.248c-0.209-0.66-0.568-1.209-1.08-1.646
			c-0.51-0.438-1.146-0.655-1.912-0.655c-1.121,0-1.971,0.41-2.549,1.229c-0.579,0.82-0.867,1.922-0.867,3.308
			c0,1.512,0.269,2.663,0.806,3.45s1.421,1.182,2.649,1.182C115.342,229.794,115.774,229.699,116.157,229.507z"/>
		<path fill="#030104" d="M126.002,230.286c-1.325-1.248-1.988-2.997-1.988-5.247c0-1.275,0.275-2.438,0.827-3.484
			c0.551-1.047,1.359-1.888,2.425-2.521c1.066-0.634,2.291-0.95,3.676-0.95c1.085,0,2.04,0.178,2.869,0.533s1.49,0.843,1.981,1.462
			c0.492,0.62,0.863,1.315,1.114,2.091c0.25,0.773,0.38,1.617,0.389,2.527c0,0.365-0.098,0.652-0.293,0.861
			c-0.196,0.209-0.481,0.314-0.854,0.314h-8.335c0.119,2.451,1.381,3.676,3.785,3.676c1.185,0,2.368-0.451,3.554-1.354
			c0.163-0.135,0.346-0.205,0.546-0.205c0.154,0,0.308,0.041,0.458,0.123c0.149,0.082,0.279,0.188,0.389,0.314
			c0.109,0.129,0.198,0.276,0.267,0.444c0.069,0.168,0.104,0.334,0.104,0.499c0,0.046-0.002,0.087-0.007,0.123
			c-0.005,0.037-0.01,0.074-0.015,0.115s-0.014,0.08-0.026,0.117c-0.015,0.035-0.03,0.072-0.048,0.108
			c-0.02,0.036-0.037,0.073-0.056,0.108c-0.019,0.037-0.041,0.074-0.067,0.109c-0.027,0.037-0.058,0.073-0.09,0.109
			c-0.031,0.037-0.065,0.068-0.103,0.096c-1.43,1.275-3.193,1.913-5.288,1.913C129.064,232.163,127.328,231.534,126.002,230.286z
			 M134.085,223.918c-0.164-2.332-1.184-3.498-3.062-3.498c-0.966,0-1.722,0.337-2.269,1.012c-0.546,0.674-0.852,1.502-0.916,2.486
			H134.085z M130.621,215.918c-0.168-0.15-0.253-0.354-0.253-0.607c0-0.174,0.096-0.401,0.287-0.685l2.95-3.962
			c0.401-0.592,0.82-0.889,1.258-0.889c0.419,0,0.811,0.164,1.175,0.492s0.546,0.711,0.546,1.148c0,0.363-0.188,0.71-0.561,1.039
			l-4.1,3.43c-0.218,0.174-0.451,0.26-0.697,0.26C130.992,216.145,130.789,216.068,130.621,215.918z"/>
		<path fill="#030104" d="M140.82,231.434c-0.319-0.383-0.479-0.934-0.479-1.652v-9.551c0-0.639,0.168-1.121,0.505-1.449
			s0.812-0.492,1.421-0.492c0.593,0,1.051,0.164,1.373,0.492c0.323,0.328,0.485,0.807,0.485,1.435v0.328
			c0.82-1.647,2.364-2.474,4.632-2.474c1.375,0,2.512,0.455,3.409,1.361c0.896,0.905,1.346,2.201,1.346,3.887v6.463
			c0,0.72-0.169,1.271-0.506,1.652c-0.337,0.383-0.82,0.574-1.448,0.574c-0.592,0-1.048-0.191-1.366-0.574
			c-0.319-0.383-0.479-0.934-0.479-1.652v-6.437c0-0.893-0.229-1.577-0.69-2.056c-0.46-0.479-1.045-0.719-1.756-0.719
			c-0.855,0-1.592,0.338-2.207,1.012c-0.614,0.674-0.922,1.544-0.922,2.609v5.59c0,0.72-0.169,1.271-0.506,1.652
			c-0.337,0.383-0.82,0.574-1.448,0.574C141.595,232.008,141.139,231.816,140.82,231.434z"/>
		<path fill="#030104" d="M165.717,231.387c-0.419-0.406-0.629-0.969-0.629-1.689v-15.234c0-0.684,0.239-1.225,0.718-1.626
			c0.479-0.399,1.068-0.601,1.771-0.601h5.807c0.829,0,1.583,0.041,2.261,0.123c0.679,0.082,1.347,0.236,2.002,0.463
			c0.656,0.229,1.207,0.525,1.653,0.889c0.446,0.365,0.806,0.846,1.08,1.441c0.273,0.598,0.41,1.291,0.41,2.084
			c0,1.185-0.362,2.182-1.086,2.992c-0.725,0.812-1.838,1.34-3.341,1.586v0.055c1.32,0.219,2.274,0.679,2.862,1.38
			c0.587,0.702,0.963,1.739,1.127,3.116l0.342,2.76c0.018,0.201,0.026,0.396,0.026,0.588c0,0.756-0.178,1.325-0.533,1.708
			c-0.354,0.382-0.865,0.574-1.529,0.574c-0.656,0-1.186-0.203-1.585-0.608c-0.4-0.404-0.639-1.021-0.71-1.852l-0.287-2.706
			c-0.109-1.157-0.401-1.972-0.875-2.446c-0.475-0.474-1.298-0.71-2.475-0.71h-3.252v6.026c0,0.738-0.211,1.305-0.635,1.701
			c-0.423,0.396-0.945,0.594-1.563,0.594C166.655,231.994,166.136,231.792,165.717,231.387z M171.975,220.667
			c0.501,0,0.933-0.015,1.292-0.041c0.36-0.026,0.753-0.097,1.183-0.205c0.428-0.108,0.776-0.257,1.045-0.444
			c0.269-0.187,0.494-0.455,0.676-0.806s0.273-0.772,0.273-1.265c0-0.373-0.046-0.703-0.138-0.99
			c-0.091-0.287-0.197-0.523-0.32-0.71s-0.307-0.345-0.548-0.472c-0.24-0.127-0.458-0.223-0.648-0.287
			c-0.191-0.063-0.456-0.114-0.792-0.15c-0.337-0.037-0.608-0.057-0.813-0.063c-0.205-0.004-0.499-0.006-0.881-0.006h-0.055h-2.815
			v5.438L171.975,220.667L171.975,220.667z"/>
		<path fill="#030104" d="M187.586,231.605c-0.952-0.377-1.72-0.894-2.302-1.545c-0.583-0.65-1.025-1.394-1.326-2.227
			c-0.3-0.833-0.451-1.729-0.451-2.686c0-0.946,0.148-1.84,0.444-2.678s0.735-1.587,1.318-2.248c0.583-0.66,1.351-1.184,2.303-1.57
			s2.033-0.582,3.245-0.582c1.184,0,2.245,0.186,3.184,0.555c0.938,0.369,1.704,0.876,2.296,1.523
			c0.592,0.646,1.045,1.394,1.359,2.24c0.313,0.848,0.472,1.768,0.472,2.76c0,0.93-0.15,1.81-0.451,2.638
			c-0.301,0.829-0.74,1.573-1.317,2.233c-0.579,0.662-1.345,1.186-2.297,1.571c-0.951,0.388-2.033,0.581-3.244,0.581
			C189.615,232.172,188.538,231.982,187.586,231.605z M193.373,228.477c0.601-0.797,0.902-1.906,0.902-3.328
			c0-1.457-0.299-2.584-0.896-3.381s-1.451-1.197-2.562-1.197c-1.111,0-1.966,0.4-2.563,1.197s-0.895,1.924-0.895,3.381
			c0,1.412,0.301,2.52,0.901,3.32c0.602,0.803,1.453,1.203,2.556,1.203C191.92,229.672,192.771,229.273,193.373,228.477z"/>
		<path fill="#030104" d="M201.939,230.266c-1.084-1.307-1.626-3.031-1.626-5.172c0-2.177,0.564-3.88,1.694-5.109
			c1.129-1.229,2.602-1.846,4.414-1.846c2.066,0,3.512,0.748,4.33,2.241v-5.93c0-0.72,0.169-1.271,0.506-1.654
			c0.338-0.382,0.82-0.573,1.449-0.573c0.592,0,1.047,0.19,1.366,0.573c0.317,0.384,0.478,0.935,0.478,1.654v15.235
			c0,0.719-0.173,1.289-0.519,1.707c-0.347,0.42-0.815,0.629-1.407,0.629c-0.584,0-1.039-0.164-1.367-0.492
			s-0.492-0.784-0.492-1.367v-0.369c-0.847,1.622-2.354,2.432-4.521,2.432C204.459,232.227,203.023,231.572,201.939,230.266z
			 M209.934,228.611c0.537-0.787,0.807-1.938,0.807-3.449c0-1.385-0.29-2.487-0.868-3.307c-0.578-0.82-1.428-1.23-2.548-1.23
			c-0.767,0-1.403,0.219-1.913,0.656c-0.51,0.437-0.87,0.986-1.08,1.646c-0.209,0.66-0.314,1.41-0.314,2.248
			c0,0.429,0.033,0.851,0.097,1.265s0.176,0.826,0.336,1.235c0.157,0.41,0.358,0.771,0.601,1.08s0.554,0.56,0.938,0.751
			c0.383,0.191,0.813,0.287,1.298,0.287C208.512,229.794,209.396,229.4,209.934,228.611z"/>
		<path fill="#030104" d="M218.507,231.434c-0.333-0.383-0.499-0.934-0.499-1.652v-9.688c0-0.573,0.188-1.019,0.562-1.332
			s0.814-0.472,1.326-0.472c0.519,0,0.97,0.156,1.352,0.472c0.383,0.313,0.57,0.745,0.562,1.291l-0.015,1.093
			c0.256-0.802,0.706-1.498,1.354-2.091c0.646-0.592,1.393-0.888,2.239-0.888c0.482,0,0.854,0.15,1.113,0.451
			c0.26,0.3,0.392,0.662,0.392,1.086s-0.127,0.795-0.378,1.113c-0.25,0.319-0.585,0.479-1.004,0.479
			c-0.501,0-0.959,0.05-1.373,0.149c-0.413,0.102-0.805,0.263-1.168,0.486c-0.364,0.223-0.648,0.545-0.854,0.969
			s-0.308,0.932-0.308,1.523v5.426c0,0.709-0.164,1.247-0.492,1.611c-0.328,0.363-0.802,0.546-1.42,0.546
			C219.302,232.008,218.84,231.816,218.507,231.434z"/>
		<path fill="#030104" d="M229.371,231.4c-0.333-0.405-0.499-1-0.499-1.783v-9.471c0-0.592,0.188-1.061,0.562-1.406
			s0.823-0.52,1.354-0.52c0.582,0,1.045,0.207,1.387,0.621c0.343,0.415,0.513,1.01,0.513,1.783v8.99
			c0,0.721-0.171,1.299-0.513,1.736c-0.342,0.437-0.813,0.655-1.414,0.655C230.166,232.008,229.704,231.805,229.371,231.4z
			 M230.245,216.055c-0.168-0.15-0.252-0.353-0.252-0.607c0-0.174,0.096-0.4,0.287-0.684l2.951-3.962
			c0.399-0.592,0.819-0.888,1.257-0.888c0.419,0,0.812,0.164,1.175,0.492c0.365,0.328,0.547,0.709,0.547,1.148
			c0,0.363-0.187,0.709-0.561,1.038l-4.1,3.431c-0.219,0.172-0.451,0.258-0.695,0.258
			C230.616,216.279,230.414,216.206,230.245,216.055z"/>
		<path fill="#030104" d="M246.034,229.74c-0.346,0.765-0.865,1.337-1.558,1.715c-0.693,0.378-1.499,0.566-2.42,0.566
			c-0.975,0-1.864-0.151-2.671-0.457c-0.806-0.307-1.499-0.746-2.076-1.319c-0.578-0.574-1.027-1.289-1.347-2.146
			c-0.317-0.855-0.479-1.813-0.479-2.869c0-1.039,0.146-1.994,0.438-2.863c0.291-0.87,0.706-1.619,1.244-2.248
			c0.537-0.629,1.207-1.118,2.008-1.469c0.803-0.352,1.699-0.526,2.691-0.526c0.574,0,1.089,0.058,1.545,0.171
			c0.455,0.114,0.85,0.279,1.182,0.499s0.617,0.463,0.854,0.731s0.456,0.584,0.656,0.949v-0.506c0.026-0.546,0.199-0.963,0.52-1.25
			c0.318-0.287,0.732-0.431,1.243-0.431c0.583,0,1.026,0.196,1.333,0.587c0.305,0.393,0.457,0.961,0.457,1.708v10.508
			c0,2.214-0.624,3.925-1.872,5.132s-3.006,1.811-5.274,1.811c-0.929,0-1.838-0.09-2.726-0.268s-1.573-0.397-2.057-0.662
			c-0.528-0.283-0.792-0.68-0.792-1.189c0-0.337,0.119-0.633,0.36-0.889c0.242-0.254,0.54-0.381,0.896-0.381
			c0.026,0,0.055,0.002,0.082,0.006c0.025,0.004,0.052,0.008,0.074,0.008s0.048,0.002,0.074,0.007
			c0.027,0.004,0.056,0.009,0.082,0.015c0.027,0.004,0.056,0.01,0.082,0.02c0.027,0.01,0.056,0.019,0.082,0.027
			c0.046,0.019,0.232,0.078,0.562,0.178c0.328,0.101,0.559,0.168,0.689,0.205c0.132,0.037,0.339,0.09,0.622,0.158
			c0.281,0.067,0.551,0.115,0.807,0.144c0.255,0.028,0.515,0.041,0.777,0.041c0.312,0,0.601-0.017,0.868-0.048
			c0.269-0.032,0.526-0.082,0.772-0.15c0.245-0.068,0.469-0.154,0.669-0.259c0.199-0.104,0.388-0.229,0.561-0.376
			s0.323-0.316,0.45-0.512c0.128-0.196,0.234-0.416,0.322-0.656c0.086-0.241,0.151-0.512,0.196-0.813
			c0.046-0.301,0.068-0.625,0.068-0.971v-1.928H246.034z M245.146,228.455c0.593-0.71,0.889-1.813,0.889-3.307
			c0-1.467-0.25-2.602-0.752-3.402c-0.5-0.801-1.338-1.203-2.514-1.203c-0.603,0-1.123,0.121-1.564,0.361
			c-0.441,0.242-0.785,0.58-1.031,1.012s-0.429,0.913-0.547,1.441c-0.119,0.527-0.178,1.115-0.178,1.763
			c0,1.448,0.303,2.546,0.908,3.293s1.409,1.125,2.412,1.134C243.76,229.529,244.553,229.166,245.146,228.455z"/>
		<path fill="#030104" d="M254.362,230.805c-0.935-0.91-1.4-2.203-1.4-3.88v-6.409c0-0.719,0.168-1.271,0.506-1.652
			c0.337-0.383,0.82-0.574,1.448-0.574c0.592,0,1.048,0.191,1.366,0.574s0.479,0.934,0.479,1.652v6.381
			c0,0.902,0.229,1.59,0.685,2.063c0.455,0.474,1.038,0.71,1.748,0.71c0.865,0,1.604-0.337,2.221-1.011
			c0.615-0.675,0.922-1.544,0.922-2.61v-5.533c0-0.72,0.169-1.271,0.506-1.654c0.338-0.381,0.815-0.573,1.437-0.573
			c0.601,0,1.061,0.19,1.379,0.573c0.319,0.384,0.479,0.935,0.479,1.654v9.551c0,0.638-0.168,1.121-0.506,1.449
			c-0.336,0.327-0.811,0.491-1.42,0.491c-0.593,0-1.053-0.164-1.381-0.491c-0.328-0.328-0.492-0.807-0.492-1.436v-0.396
			c-0.801,1.658-2.3,2.487-4.495,2.487C256.455,232.172,255.296,231.716,254.362,230.805z"/>
		<path fill="#030104" d="M270.937,230.286c-1.324-1.248-1.987-2.997-1.987-5.247c0-1.275,0.275-2.438,0.827-3.484
			c0.551-1.047,1.358-1.888,2.425-2.521c1.064-0.634,2.291-0.95,3.676-0.95c1.084,0,2.04,0.178,2.869,0.533s1.489,0.843,1.981,1.462
			c0.491,0.62,0.862,1.315,1.112,2.091c0.251,0.773,0.381,1.617,0.391,2.527c0,0.365-0.1,0.652-0.294,0.861
			c-0.195,0.211-0.48,0.314-0.854,0.314h-8.336c0.119,2.451,1.381,3.676,3.785,3.676c1.185,0,2.369-0.451,3.553-1.354
			c0.164-0.135,0.346-0.205,0.547-0.205c0.154,0,0.309,0.041,0.458,0.123s0.28,0.188,0.391,0.314
			c0.108,0.129,0.196,0.276,0.266,0.444s0.104,0.334,0.104,0.499c0,0.046-0.004,0.087-0.009,0.123
			c-0.004,0.037-0.009,0.074-0.014,0.115c-0.004,0.041-0.014,0.08-0.027,0.117c-0.014,0.035-0.028,0.072-0.047,0.108
			c-0.02,0.036-0.037,0.073-0.055,0.108c-0.021,0.037-0.041,0.074-0.068,0.109c-0.026,0.037-0.058,0.073-0.09,0.109
			c-0.031,0.037-0.065,0.068-0.102,0.096c-1.432,1.275-3.193,1.913-5.289,1.913C274,232.163,272.262,231.534,270.937,230.286z
			 M279.02,223.918c-0.164-2.332-1.186-3.498-3.062-3.498c-0.966,0-1.722,0.337-2.269,1.012c-0.547,0.674-0.853,1.502-0.916,2.486
			H279.02z"/>
		<path fill="#030104" d="M284.581,231.646c-0.319-0.242-0.479-0.6-0.479-1.072c0-0.456,0.19-0.934,0.573-1.436l6.367-8.062h-4.974
			c-0.528,0-0.942-0.116-1.243-0.349c-0.301-0.233-0.451-0.582-0.451-1.045c0-0.447,0.144-0.795,0.43-1.045
			c0.287-0.252,0.709-0.377,1.266-0.377h7.609c1.349,0,2.022,0.451,2.022,1.354c0,0.382-0.204,0.869-0.614,1.462l-6.313,8.13h5.534
			c0.428,0,0.766,0.139,1.012,0.417c0.245,0.278,0.368,0.599,0.368,0.963c0,0.464-0.147,0.817-0.444,1.06
			c-0.296,0.242-0.713,0.361-1.25,0.361h-8.157C285.318,232.008,284.899,231.887,284.581,231.646z"/>
		<path fill="#030104" d="M307.262,231.387c-0.419-0.406-0.629-0.969-0.629-1.689v-15.234c0-0.684,0.24-1.225,0.72-1.626
			c0.478-0.399,1.066-0.601,1.77-0.601h5.807c0.828,0,1.582,0.041,2.263,0.123c0.678,0.082,1.346,0.236,2.001,0.463
			c0.655,0.229,1.207,0.525,1.652,0.889c0.446,0.365,0.808,0.846,1.08,1.441c0.273,0.598,0.41,1.291,0.41,2.084
			c0,1.185-0.362,2.182-1.087,2.992c-0.724,0.812-1.838,1.34-3.341,1.586v0.055c1.321,0.219,2.274,0.679,2.862,1.38
			c0.588,0.702,0.964,1.739,1.128,3.116l0.342,2.76c0.018,0.201,0.027,0.396,0.027,0.588c0,0.756-0.179,1.325-0.533,1.708
			c-0.355,0.382-0.865,0.574-1.53,0.574c-0.656,0-1.185-0.203-1.585-0.608c-0.401-0.404-0.638-1.021-0.711-1.852l-0.287-2.706
			c-0.109-1.157-0.4-1.972-0.874-2.446c-0.474-0.474-1.298-0.71-2.474-0.71h-3.252v6.026c0,0.738-0.211,1.305-0.636,1.701
			c-0.424,0.396-0.944,0.594-1.563,0.594C308.201,231.994,307.682,231.792,307.262,231.387z M313.521,220.667
			c0.502,0,0.932-0.015,1.292-0.041c0.359-0.026,0.753-0.097,1.182-0.205s0.776-0.257,1.046-0.444
			c0.269-0.187,0.494-0.455,0.676-0.806c0.184-0.351,0.273-0.772,0.273-1.265c0-0.373-0.046-0.703-0.137-0.99
			c-0.092-0.287-0.198-0.523-0.321-0.71c-0.122-0.187-0.306-0.345-0.546-0.472c-0.242-0.127-0.458-0.223-0.649-0.287
			c-0.19-0.063-0.456-0.114-0.792-0.15c-0.338-0.037-0.607-0.057-0.813-0.063c-0.205-0.004-0.499-0.006-0.882-0.006h-0.056h-2.813
			v5.438L313.521,220.667L313.521,220.667z"/>
		<path fill="#030104" d="M326.174,214.996c-0.392-0.364-0.588-0.842-0.588-1.436c0-0.593,0.198-1.072,0.595-1.441
			s0.917-0.553,1.564-0.553c0.638,0,1.154,0.185,1.551,0.553c0.396,0.369,0.595,0.85,0.595,1.441s-0.197,1.07-0.595,1.436
			c-0.396,0.365-0.918,0.546-1.563,0.546C327.085,215.543,326.566,215.359,326.174,214.996z M326.325,231.434
			c-0.328-0.383-0.492-0.943-0.492-1.681v-9.21c0-0.729,0.161-1.286,0.485-1.674c0.322-0.387,0.779-0.581,1.373-0.581
			c0.619,0,1.1,0.194,1.44,0.581c0.343,0.388,0.514,0.945,0.514,1.674v9.21c0,0.729-0.162,1.287-0.485,1.674
			c-0.323,0.388-0.795,0.581-1.414,0.581C327.126,232.008,326.652,231.816,326.325,231.434z"/>
		<path fill="#030104" d="M336.812,231.496c-0.415-0.415-0.863-1.246-1.347-2.494l-3.401-8.268
			c-0.109-0.272-0.164-0.541-0.164-0.805c0-0.502,0.173-0.912,0.519-1.229c0.347-0.319,0.747-0.479,1.203-0.479
			c0.364,0,0.698,0.112,1.004,0.336c0.305,0.223,0.54,0.557,0.704,1.004l3.348,8.648l3.334-8.648c0.164-0.447,0.4-0.781,0.71-1.004
			c0.311-0.224,0.644-0.336,0.998-0.336c0.302,0,0.583,0.068,0.848,0.205s0.479,0.338,0.643,0.602
			c0.164,0.265,0.246,0.561,0.246,0.888c0,0.265-0.055,0.538-0.164,0.819l-3.416,8.268c-0.482,1.248-0.927,2.079-1.332,2.494
			c-0.406,0.415-1.027,0.622-1.865,0.622C337.847,232.117,337.226,231.91,336.812,231.496z"/>
		<path fill="#030104" d="M349.082,230.286c-1.325-1.248-1.988-2.997-1.988-5.247c0-1.275,0.275-2.438,0.827-3.484
			c0.551-1.047,1.359-1.888,2.425-2.521c1.066-0.634,2.291-0.95,3.677-0.95c1.084,0,2.041,0.178,2.87,0.533
			c0.827,0.355,1.488,0.843,1.979,1.462c0.492,0.62,0.863,1.315,1.114,2.091c0.25,0.773,0.38,1.617,0.39,2.527
			c0,0.365-0.099,0.652-0.294,0.861c-0.196,0.209-0.479,0.314-0.854,0.314h-8.335c0.117,2.451,1.38,3.676,3.784,3.676
			c1.185,0,2.368-0.451,3.554-1.354c0.164-0.135,0.346-0.205,0.547-0.205c0.153,0,0.307,0.041,0.457,0.123
			c0.149,0.082,0.28,0.188,0.39,0.314c0.109,0.129,0.198,0.276,0.268,0.444c0.068,0.168,0.103,0.334,0.103,0.499
			c0,0.046-0.003,0.087-0.007,0.123c-0.005,0.037-0.01,0.074-0.014,0.115c-0.006,0.041-0.015,0.08-0.027,0.117
			c-0.014,0.035-0.03,0.072-0.048,0.108c-0.02,0.036-0.037,0.073-0.056,0.108c-0.019,0.037-0.041,0.074-0.067,0.109
			c-0.027,0.037-0.058,0.073-0.089,0.109c-0.032,0.037-0.066,0.068-0.104,0.096c-1.431,1.275-3.191,1.913-5.288,1.913
			C352.146,232.163,350.407,231.534,349.082,230.286z M357.164,223.918c-0.163-2.332-1.184-3.498-3.061-3.498
			c-0.967,0-1.723,0.337-2.269,1.012c-0.547,0.674-0.853,1.502-0.916,2.486H357.164z"/>
		<path fill="#030104" d="M363.552,231.434c-0.333-0.383-0.499-0.934-0.499-1.652v-9.688c0-0.573,0.188-1.019,0.562-1.332
			c0.373-0.313,0.813-0.472,1.325-0.472c0.52,0,0.97,0.156,1.353,0.472c0.383,0.313,0.569,0.745,0.562,1.291l-0.015,1.093
			c0.255-0.802,0.706-1.498,1.354-2.091c0.646-0.592,1.394-0.888,2.241-0.888c0.481,0,0.854,0.15,1.112,0.451
			c0.261,0.3,0.391,0.662,0.391,1.086s-0.126,0.795-0.376,1.113c-0.251,0.319-0.585,0.479-1.004,0.479
			c-0.503,0-0.96,0.05-1.374,0.149c-0.414,0.102-0.805,0.263-1.169,0.486c-0.363,0.223-0.648,0.545-0.854,0.969
			s-0.308,0.932-0.308,1.523v5.426c0,0.709-0.164,1.247-0.492,1.611c-0.328,0.363-0.802,0.546-1.421,0.546
			C364.346,232.008,363.884,231.816,363.552,231.434z"/>
		<path fill="#030104" d="M373.328,226.658c0.137-0.451,0.364-0.838,0.684-1.161c0.318-0.323,0.694-0.585,1.127-0.786
			c0.434-0.201,0.993-0.359,1.682-0.479c0.688-0.119,1.414-0.199,2.18-0.24s1.694-0.061,2.787-0.061v-0.984
			c0-1.566-0.774-2.351-2.322-2.351c-0.501,0-1.034,0.063-1.599,0.191c-0.565,0.128-0.984,0.239-1.258,0.335
			c-0.272,0.096-0.643,0.238-1.106,0.43c-0.046,0.02-0.094,0.034-0.144,0.049c-0.05,0.014-0.099,0.022-0.145,0.026
			c-0.046,0.005-0.091,0.007-0.137,0.007c-0.337,0-0.624-0.146-0.86-0.438s-0.354-0.614-0.354-0.969
			c0-0.229,0.055-0.436,0.164-0.623c0.108-0.187,0.276-0.334,0.506-0.443c1.512-0.719,3.22-1.08,5.124-1.08
			c0.865,0,1.637,0.098,2.314,0.294c0.679,0.196,1.28,0.503,1.805,0.922c0.523,0.419,0.927,0.985,1.21,1.701
			c0.282,0.715,0.423,1.563,0.423,2.548v6.572c0,0.602-0.173,1.068-0.52,1.4c-0.347,0.334-0.752,0.5-1.217,0.5
			c-0.301,0-0.587-0.074-0.859-0.22c-0.603-0.328-0.902-0.894-0.902-1.694v-0.381c-0.311,0.791-0.826,1.397-1.551,1.816
			s-1.578,0.628-2.563,0.628c-1.356,0-2.476-0.351-3.354-1.052c-0.88-0.701-1.319-1.653-1.319-2.856
			C373.123,227.645,373.191,227.109,373.328,226.658z M379.634,229.65c0.396-0.178,0.753-0.424,1.072-0.737
			c0.318-0.313,0.576-0.706,0.772-1.175c0.194-0.469,0.293-0.969,0.293-1.496v-0.451c-0.593,0-1.086,0.005-1.482,0.014
			c-0.396,0.01-0.797,0.032-1.202,0.068c-0.405,0.037-0.732,0.087-0.982,0.15c-0.251,0.063-0.49,0.147-0.719,0.252
			c-0.228,0.104-0.402,0.234-0.525,0.39s-0.219,0.339-0.287,0.554s-0.104,0.463-0.104,0.745c0,0.61,0.177,1.088,0.526,1.435
			c0.35,0.348,0.827,0.52,1.428,0.52C378.835,229.917,379.238,229.829,379.634,229.65z"/>
	</g>
</g>
<g>
</g>
<g>
</g>
<g>
</g>
<g>
</g>
<g>
</g>
<g>
</g>
</svg>
